<svg width="12" height="12" viewBox="0 0 12 12" fill="none" xmlns="http://www.w3.org/2000/svg">
<path d="M5.52 0.480028C5.34694 0.477591 5.18587 0.568528 5.09859 0.71806C5.01131 0.867591 5.01131 1.05247 5.09859 1.202C5.18587 1.35153 5.34694 1.44247 5.52 1.44003C8.04412 1.44003 10.08 3.4759 10.08 6.00003C10.08 8.52415 8.04412 10.56 5.52 10.56C2.99588 10.56 0.96 8.52415 0.96 6.00003C0.96 4.68584 1.51397 3.506 2.4 2.67472V3.60003C2.39756 3.77309 2.4885 3.93415 2.63803 4.02143C2.78756 4.10872 2.97244 4.10872 3.12197 4.02143C3.2715 3.93415 3.36244 3.77309 3.36 3.60003V0.960028H0.72C0.546938 0.957591 0.385875 1.04853 0.298594 1.19806C0.211313 1.34759 0.211313 1.53247 0.298594 1.682C0.385875 1.83153 0.546938 1.92247 0.72 1.92003H1.80609C0.697594 2.93028 0 4.38537 0 6.00003C0 9.04297 2.47706 11.52 5.52 11.52C8.56294 11.52 11.04 9.04297 11.04 6.00003C11.04 2.95709 8.56294 0.480028 5.52 0.480028Z" fill="#4B5D8C"/>
</svg>
