<svg width="30" height="30" viewBox="0 0 30 30" fill="none" xmlns="http://www.w3.org/2000/svg">
<path d="M15 0.599976C11.6789 0.599976 8.99998 3.27888 8.99998 6.59998V7.79998H4.25623L4.19998 8.32498L1.79998 29.325L1.72498 30H28.275L28.2 29.325L25.8 8.32498L25.7437 7.79998H21V6.59998C21 3.27888 18.3211 0.599976 15 0.599976ZM15 1.79998C17.6789 1.79998 19.8 3.92107 19.8 6.59998V7.79998H10.2V6.59998C10.2 3.92107 12.3211 1.79998 15 1.79998ZM5.34373 8.99998H8.99998V10.3687C8.64138 10.5773 8.39998 10.957 8.39998 11.4C8.39998 12.0633 8.93669 12.6 9.59998 12.6C10.2633 12.6 10.8 12.0633 10.8 11.4C10.8 10.957 10.5586 10.5773 10.2 10.3687V8.99998H19.8V10.3687C19.4414 10.5773 19.2 10.957 19.2 11.4C19.2 12.0633 19.7367 12.6 20.4 12.6C21.0633 12.6 21.6 12.0633 21.6 11.4C21.6 10.957 21.3586 10.5773 21 10.3687V8.99998H24.6562L26.925 28.8H3.07498L5.34373 8.99998Z" fill="#4B5D8C"/>
</svg>
