<svg width="86" height="78" viewBox="0 0 86 78" fill="none" xmlns="http://www.w3.org/2000/svg">
<path d="M39.3194 0.52002C38.306 0.52002 37.4794 1.34658 37.4794 2.36002V16.62L28.2794 35.02V31.8C28.2794 30.7866 27.4528 29.96 26.4394 29.96H2.5194C1.99471 29.96 1.49158 30.1972 1.1394 30.5925C0.787209 30.9878 0.614709 31.5053 0.679397 32.03L6.1994 76.19C6.3144 77.11 7.11221 77.8 8.0394 77.8H26.4394C27.4528 77.8 28.2794 76.9806 28.2794 75.96V74.12H30.4069C31.1688 76.2619 33.2388 77.8 35.6394 77.8H70.5994C74.6603 77.8 77.9594 74.501 77.9594 70.44C77.9594 68.9235 77.4778 67.5291 76.6944 66.3575C79.5622 65.3513 81.6394 62.6056 81.6394 59.4C81.6394 57.596 80.9925 55.9644 79.9144 54.685C82.0491 53.3985 83.4794 51.0338 83.4794 48.36C83.4794 46.556 82.8325 44.9244 81.7544 43.645C83.8891 42.3585 85.3194 39.9938 85.3194 37.32C85.3194 33.2591 82.0203 29.96 77.9594 29.96H51.0494C52.1706 26.4094 54.0394 20.0556 54.0394 17.08C54.0394 10.1513 48.965 0.52002 43.9769 0.52002H39.3194ZM41.1594 4.20002H43.9769C45.666 4.20002 50.3594 10.6041 50.3594 17.08C50.3594 19.9622 47.7863 28.271 46.7944 31.225C46.6003 31.7856 46.6794 32.411 47.0244 32.8925C47.3694 33.3741 47.93 33.64 48.5194 33.64H77.9594C79.9863 33.64 81.6394 35.2931 81.6394 37.32C81.6394 39.3469 79.9863 41 77.9594 41H76.1194C75.0988 41 74.2794 41.8194 74.2794 42.84C74.2794 43.8606 75.0988 44.68 76.1194 44.68C78.1463 44.68 79.7994 46.3331 79.7994 48.36C79.7994 50.3869 78.1463 52.04 76.1194 52.04H74.2794C73.2588 52.04 72.4394 52.8594 72.4394 53.88C72.4394 54.9006 73.2588 55.72 74.2794 55.72C76.3063 55.72 77.9594 57.3731 77.9594 59.4C77.9594 61.4269 76.3063 63.08 74.2794 63.08H70.5994C69.5788 63.08 68.7594 63.8994 68.7594 64.92C68.7594 65.9406 69.5788 66.76 70.5994 66.76C72.6263 66.76 74.2794 68.4131 74.2794 70.44C74.2794 72.4669 72.6263 74.12 70.5994 74.12H35.6394C34.626 74.12 33.7994 73.2935 33.7994 72.28C33.7994 71.2594 32.9728 70.44 31.9594 70.44H28.2794V39.16H29.1994C29.8966 39.16 30.5506 38.7503 30.8669 38.125L40.9869 17.885C41.1163 17.6335 41.1594 17.3675 41.1594 17.08V4.20002ZM4.5894 33.64H24.5994V74.12H9.6494L4.5894 33.64ZM18.1594 64.92C16.6356 64.92 15.3994 66.1563 15.3994 67.68C15.3994 69.2038 16.6356 70.44 18.1594 70.44C19.6831 70.44 20.9194 69.2038 20.9194 67.68C20.9194 66.1563 19.6831 64.92 18.1594 64.92Z" fill="#1D3DFF"/>
</svg>
