<svg width="11" height="17" viewBox="0 0 11 17" fill="none" xmlns="http://www.w3.org/2000/svg">
<path fill-rule="evenodd" clip-rule="evenodd" d="M0 1.66667C0 0.746192 0.735055 0 1.64179 0H9.35821C10.2649 0 11 0.746192 11 1.66667V15.3333C11 16.2538 10.2649 17 9.35821 17H1.64179C0.735055 17 0 16.2538 0 15.3333V1.66667ZM1.64179 0.833333C1.18842 0.833333 0.820896 1.20643 0.820896 1.66667V15.3333C0.820896 15.7936 1.18842 16.1667 1.64179 16.1667H9.35821C9.81158 16.1667 10.1791 15.7936 10.1791 15.3333V1.66667C10.1791 1.20643 9.81158 0.833333 9.35821 0.833333H9.0709C8.78972 1.06898 8.65124 1.5553 8.5732 2.10348C8.51161 2.53605 8.16277 2.875 7.73223 2.875H3.26777C2.83723 2.875 2.48839 2.53605 2.4268 2.10348C2.34876 1.5553 2.21028 1.06898 1.9291 0.833333H1.64179ZM3.0246 1.06363C3.13192 1.35995 3.19627 1.6823 3.23926 1.98428C3.24307 2.01107 3.25516 2.02926 3.26452 2.03799C3.26653 2.03987 3.26909 2.04167 3.26909 2.04167H7.73091C7.73091 2.04167 7.73347 2.03987 7.73548 2.03799C7.74484 2.02926 7.75693 2.01107 7.76074 1.98428C7.80374 1.6823 7.86808 1.35995 7.97541 1.06363C8.00238 0.989145 8.03373 0.911636 8.0705 0.833333H2.9295C2.96627 0.911636 2.99762 0.989145 3.0246 1.06363Z" fill="#EEEEEE"/>
<path d="M4.02239 1.45833C4.02239 1.29725 4.15102 1.16667 4.3097 1.16667H5.62313C5.78181 1.16667 5.91045 1.29725 5.91045 1.45833C5.91045 1.61942 5.78181 1.75 5.62313 1.75H4.3097C4.15102 1.75 4.02239 1.61942 4.02239 1.45833Z" fill="#EEEEEE"/>
<path d="M6.23881 1.45833C6.23881 1.29725 6.36744 1.16667 6.52612 1.16667C6.6848 1.16667 6.81343 1.29725 6.81343 1.45833C6.81343 1.61942 6.6848 1.75 6.52612 1.75C6.36744 1.75 6.23881 1.61942 6.23881 1.45833Z" fill="#EEEEEE"/>
</svg>
