<svg width="218" height="47" viewBox="0 0 218 47" fill="none" xmlns="http://www.w3.org/2000/svg">
<path d="M0 3.76006C0 1.68263 1.68263 0 3.76006 0H30.0805C32.1579 0 33.8406 1.68263 33.8406 3.76006V41.3607C33.8406 43.4381 32.1579 45.1207 30.0805 45.1207H3.76006C1.68263 45.1207 0 43.4381 0 41.3607V3.76006Z" fill="#001FD9"/>
<path d="M11.1239 32C10.1828 32 9.32008 31.7741 8.53581 31.3222C7.76896 30.8536 7.15026 30.2427 6.6797 29.4895C6.22657 28.7197 6 27.8745 6 26.954V25.7992C6 25.7155 6.04357 25.6736 6.13071 25.6736H9.05865C9.12837 25.6736 9.16322 25.7155 9.16322 25.7992V26.954C9.16322 27.5063 9.35493 27.9833 9.73835 28.3849C10.1218 28.7699 10.5836 28.9623 11.1239 28.9623C11.6642 28.9623 12.126 28.7615 12.5094 28.3598C12.8929 27.9582 13.0846 27.4895 13.0846 26.954C13.0846 26.3347 12.6663 25.7992 11.8297 25.3473C11.5509 25.1967 11.1152 24.9623 10.5226 24.6444C9.93006 24.3264 9.37236 24.0251 8.84951 23.7406C7.89096 23.205 7.17641 22.5356 6.70584 21.7322C6.25271 20.9121 6.02614 19.9916 6.02614 18.9707C6.02614 18.0335 6.26142 17.1967 6.73199 16.4603C7.20255 15.7071 7.82125 15.113 8.58809 14.6778C9.37236 14.2427 10.2176 14.0251 11.1239 14.0251C12.0476 14.0251 12.8929 14.251 13.6597 14.7029C14.444 15.1381 15.0627 15.7322 15.5158 16.4854C15.9864 17.2218 16.2217 18.0502 16.2217 18.9707V21.0293C16.2217 21.0962 16.1868 21.1297 16.1171 21.1297H13.1891C13.1194 21.1297 13.0846 21.0962 13.0846 21.0293L13.0584 18.9707C13.0584 18.3849 12.8667 17.9079 12.4833 17.5397C12.0999 17.1715 11.6467 16.9874 11.1239 16.9874C10.5836 16.9874 10.1218 17.1883 9.73835 17.59C9.35493 17.9749 9.16322 18.4351 9.16322 18.9707C9.16322 19.523 9.28522 19.9833 9.52922 20.3515C9.77321 20.7197 10.2176 21.0711 10.8625 21.4059C10.9496 21.4561 11.1152 21.5481 11.3592 21.682C11.6206 21.7992 11.8995 21.9414 12.1957 22.1088C12.492 22.2594 12.7534 22.3933 12.98 22.5105C13.224 22.6276 13.3721 22.7029 13.4244 22.7364C14.2958 23.205 14.9842 23.7824 15.4897 24.4686C15.9951 25.1381 16.2478 25.9665 16.2478 26.954C16.2478 27.9079 16.0125 28.7699 15.542 29.5397C15.0888 30.2929 14.4701 30.8954 13.6858 31.3473C12.919 31.7824 12.065 32 11.1239 32Z" fill="white"/>
<path d="M22.8761 32C21.9176 32 21.0461 31.7741 20.2619 31.3222C19.495 30.8536 18.885 30.2343 18.4319 29.4644C17.9788 28.6946 17.7522 27.8326 17.7522 26.8787L17.7783 19.046C17.7783 18.1255 17.9962 17.2887 18.4319 16.5356C18.885 15.7657 19.495 15.1548 20.2619 14.7029C21.0461 14.2343 21.9176 14 22.8761 14C23.8347 14 24.6974 14.2259 25.4642 14.6778C26.231 15.1297 26.841 15.7406 27.2942 16.5105C27.7473 17.2636 27.9739 18.1088 27.9739 19.046V20.2008C27.9739 20.2678 27.939 20.3013 27.8693 20.3013H24.9413C24.8716 20.3013 24.8368 20.2678 24.8368 20.2008V19.046C24.8368 18.4937 24.6451 18.0167 24.2616 17.6151C23.8957 17.2134 23.4338 17.0126 22.8761 17.0126C22.2487 17.0126 21.7694 17.2218 21.4383 17.6402C21.1071 18.0418 20.9416 18.5105 20.9416 19.046V26.8787C20.9416 27.4979 21.1246 28 21.4906 28.3849C21.874 28.7699 22.3358 28.9623 22.8761 28.9623C23.4338 28.9623 23.8957 28.7531 24.2616 28.3347C24.6451 27.8996 24.8368 27.4142 24.8368 26.8787V25.7238C24.8368 25.6569 24.8716 25.6234 24.9413 25.6234H27.8954C27.9651 25.6234 28 25.6569 28 25.7238V26.8787C28 27.8326 27.7647 28.6946 27.2942 29.4644C26.841 30.2343 26.231 30.8536 25.4642 31.3222C24.6974 31.7741 23.8347 32 22.8761 32Z" fill="white"/>
<path d="M37.6006 3.76007C37.6006 2.88398 37.4217 2.05626 37.1453 1.27417L43.8282 2.32802C45.8793 2.65138 47.2783 4.58041 46.9531 6.63152L41.089 43.7695C40.7637 45.8206 38.8366 47.2213 36.7855 46.898L35.3938 46.6777C36.7568 45.3165 37.6006 43.4344 37.6006 41.3607V3.76007Z" fill="#FC3504"/>
<path d="M72.72 35.32C71.568 35.32 70.512 35.032 69.552 34.456C68.6133 33.8587 67.856 33.08 67.28 32.12C66.7253 31.1387 66.448 30.0613 66.448 28.888V27.416C66.448 27.3093 66.5013 27.256 66.608 27.256H70.192C70.2773 27.256 70.32 27.3093 70.32 27.416V28.888C70.32 29.592 70.5547 30.2 71.024 30.712C71.4933 31.2027 72.0587 31.448 72.72 31.448C73.3813 31.448 73.9467 31.192 74.416 30.68C74.8853 30.168 75.12 29.5707 75.12 28.888C75.12 28.0987 74.608 27.416 73.584 26.84C73.2427 26.648 72.7093 26.3493 71.984 25.944C71.2587 25.5387 70.576 25.1547 69.936 24.792C68.7627 24.1093 67.888 23.256 67.312 22.232C66.7573 21.1867 66.48 20.0133 66.48 18.712C66.48 17.5173 66.768 16.4507 67.344 15.512C67.92 14.552 68.6773 13.7947 69.616 13.24C70.576 12.6853 71.6107 12.408 72.72 12.408C73.8507 12.408 74.8853 12.696 75.824 13.272C76.784 13.8267 77.5413 14.584 78.096 15.544C78.672 16.4827 78.96 17.5387 78.96 18.712V21.336C78.96 21.4213 78.9173 21.464 78.832 21.464H75.248C75.1627 21.464 75.12 21.4213 75.12 21.336L75.088 18.712C75.088 17.9653 74.8533 17.3573 74.384 16.888C73.9147 16.4187 73.36 16.184 72.72 16.184C72.0587 16.184 71.4933 16.44 71.024 16.952C70.5547 17.4427 70.32 18.0293 70.32 18.712C70.32 19.416 70.4693 20.0027 70.768 20.472C71.0667 20.9413 71.6107 21.3893 72.4 21.816C72.5067 21.88 72.7093 21.9973 73.008 22.168C73.328 22.3173 73.6693 22.4987 74.032 22.712C74.3947 22.904 74.7147 23.0747 74.992 23.224C75.2907 23.3733 75.472 23.4693 75.536 23.512C76.6027 24.1093 77.4453 24.8453 78.064 25.72C78.6827 26.5733 78.992 27.6293 78.992 28.888C78.992 30.104 78.704 31.2027 78.128 32.184C77.5733 33.144 76.816 33.912 75.856 34.488C74.9173 35.0427 73.872 35.32 72.72 35.32ZM81.3775 35C81.2708 35 81.2175 34.9467 81.2175 34.84L81.2815 12.856C81.2815 12.7707 81.3242 12.728 81.4095 12.728H87.5535C89.5162 12.728 91.0628 13.3253 92.1935 14.52C93.3455 15.7147 93.9215 17.336 93.9215 19.384C93.9215 20.8987 93.6228 22.2107 93.0255 23.32C92.4282 24.4293 91.6495 25.2827 90.6895 25.88C89.7295 26.4773 88.6842 26.776 87.5535 26.776H85.1215V34.84C85.1215 34.9467 85.0682 35 84.9615 35H81.3775ZM85.1215 22.904H87.5535C88.2362 22.904 88.8228 22.584 89.3135 21.944C89.8255 21.2827 90.0815 20.4293 90.0815 19.384C90.0815 18.552 89.8575 17.8693 89.4095 17.336C88.9615 16.8027 88.3428 16.536 87.5535 16.536L85.1215 16.568V22.904ZM101.45 35.32C100.298 35.32 99.242 35.032 98.282 34.456C97.3433 33.8587 96.586 33.08 96.01 32.12C95.434 31.1387 95.146 30.0613 95.146 28.888L95.178 18.744C95.178 17.5707 95.4553 16.504 96.01 15.544C96.586 14.584 97.354 13.816 98.314 13.24C99.274 12.664 100.319 12.376 101.45 12.376C102.602 12.376 103.647 12.664 104.586 13.24C105.525 13.816 106.271 14.584 106.826 15.544C107.402 16.504 107.69 17.5707 107.69 18.744L107.722 28.888C107.722 30.0613 107.434 31.1387 106.858 32.12C106.303 33.08 105.546 33.8587 104.586 34.456C103.647 35.032 102.602 35.32 101.45 35.32ZM101.45 31.448C102.09 31.448 102.645 31.192 103.114 30.68C103.605 30.1467 103.85 29.5493 103.85 28.888L103.818 18.744C103.818 18.04 103.594 17.4427 103.146 16.952C102.698 16.4613 102.133 16.216 101.45 16.216C100.789 16.216 100.223 16.4613 99.754 16.952C99.2847 17.4213 99.05 18.0187 99.05 18.744V28.888C99.05 29.592 99.2847 30.2 99.754 30.712C100.223 31.2027 100.789 31.448 101.45 31.448ZM110.283 35C110.198 35 110.155 34.9467 110.155 34.84L110.219 12.856C110.219 12.7707 110.262 12.728 110.347 12.728H116.811C117.963 12.728 119.019 13.016 119.979 13.592C120.96 14.1467 121.739 14.904 122.315 15.864C122.891 16.8027 123.179 17.8693 123.179 19.064C123.179 19.8533 123.062 20.568 122.827 21.208C122.592 21.8267 122.315 22.36 121.995 22.808C121.675 23.2347 121.387 23.5547 121.131 23.768C122.283 25.048 122.859 26.552 122.859 28.28L122.891 34.84C122.891 34.9467 122.838 35 122.731 35H119.115C119.03 35 118.987 34.968 118.987 34.904V28.28C118.987 27.512 118.71 26.8507 118.155 26.296C117.622 25.72 116.96 25.432 116.171 25.432H114.059L114.027 34.84C114.027 34.9467 113.984 35 113.899 35H110.283ZM114.059 21.592H116.811C117.472 21.592 118.059 21.3467 118.571 20.856C119.083 20.3653 119.339 19.768 119.339 19.064C119.339 18.3813 119.083 17.7947 118.571 17.304C118.08 16.8133 117.494 16.568 116.811 16.568H114.059V21.592ZM128.168 35C128.082 35 128.04 34.9467 128.04 34.84V16.6H123.88C123.773 16.6 123.72 16.5467 123.72 16.44L123.752 12.856C123.752 12.7707 123.794 12.728 123.88 12.728H136.04C136.146 12.728 136.2 12.7707 136.2 12.856V16.44C136.2 16.5467 136.157 16.6 136.072 16.6H131.88L131.911 34.84C131.911 34.9467 131.869 35 131.784 35H128.168ZM136.442 25.752C136.336 25.752 136.282 25.7093 136.282 25.624V22.136C136.282 22.0507 136.336 22.008 136.442 22.008H142.618C142.725 22.008 142.778 22.0507 142.778 22.136V25.624C142.778 25.7093 142.725 25.752 142.618 25.752H136.442ZM151.762 35.32C150.588 35.32 149.522 35.032 148.562 34.456C147.623 33.8587 146.876 33.0693 146.322 32.088C145.767 31.1067 145.49 30.008 145.49 28.792L145.522 18.808C145.522 17.6347 145.788 16.568 146.322 15.608C146.876 14.6267 147.623 13.848 148.562 13.272C149.522 12.6747 150.588 12.376 151.762 12.376C152.935 12.376 153.991 12.664 154.93 13.24C155.868 13.816 156.615 14.5947 157.17 15.576C157.724 16.536 158.002 17.6133 158.002 18.808V20.28C158.002 20.3653 157.959 20.408 157.874 20.408H154.29C154.204 20.408 154.162 20.3653 154.162 20.28V18.808C154.162 18.104 153.927 17.496 153.458 16.984C153.01 16.472 152.444 16.216 151.762 16.216C150.994 16.216 150.407 16.4827 150.002 17.016C149.596 17.528 149.394 18.1253 149.394 18.808V28.792C149.394 29.5813 149.618 30.2213 150.066 30.712C150.535 31.2027 151.1 31.448 151.762 31.448C152.444 31.448 153.01 31.1813 153.458 30.648C153.927 30.0933 154.162 29.4747 154.162 28.792V27.32C154.162 27.2347 154.204 27.192 154.29 27.192H157.906C157.991 27.192 158.034 27.2347 158.034 27.32V28.792C158.034 30.008 157.746 31.1067 157.17 32.088C156.615 33.0693 155.868 33.8587 154.93 34.456C153.991 35.032 152.935 35.32 151.762 35.32ZM159.192 34.84L163.16 12.856C163.181 12.7707 163.235 12.728 163.32 12.728H167.96C168.045 12.728 168.099 12.7707 168.12 12.856L171.928 34.84C171.949 34.9467 171.907 35 171.8 35H168.248C168.163 35 168.109 34.9467 168.088 34.84L167.736 32.504H163.384L163.032 34.84C163.011 34.9467 162.957 35 162.872 35H159.32C159.235 35 159.192 34.9467 159.192 34.84ZM164.024 29.08H167.096L165.784 20.088L165.592 18.904L165.464 20.088L164.024 29.08ZM174.064 35C173.979 35 173.936 34.9467 173.936 34.84L174 12.856C174 12.7707 174.043 12.728 174.128 12.728H180.592C181.744 12.728 182.8 13.016 183.76 13.592C184.742 14.1467 185.52 14.904 186.096 15.864C186.672 16.8027 186.96 17.8693 186.96 19.064C186.96 19.8533 186.843 20.568 186.608 21.208C186.374 21.8267 186.096 22.36 185.776 22.808C185.456 23.2347 185.168 23.5547 184.912 23.768C186.064 25.048 186.64 26.552 186.64 28.28L186.672 34.84C186.672 34.9467 186.619 35 186.512 35H182.896C182.811 35 182.768 34.968 182.768 34.904V28.28C182.768 27.512 182.491 26.8507 181.936 26.296C181.403 25.72 180.742 25.432 179.952 25.432H177.84L177.808 34.84C177.808 34.9467 177.766 35 177.68 35H174.064ZM177.84 21.592H180.592C181.254 21.592 181.84 21.3467 182.352 20.856C182.864 20.3653 183.12 19.768 183.12 19.064C183.12 18.3813 182.864 17.7947 182.352 17.304C181.862 16.8133 181.275 16.568 180.592 16.568H177.84V21.592ZM189.534 35C189.427 35 189.374 34.9467 189.374 34.84L189.438 12.856C189.438 12.7707 189.48 12.728 189.566 12.728L195.55 12.696C196.723 12.6747 197.79 12.952 198.75 13.528C199.731 14.104 200.51 14.8827 201.086 15.864C201.662 16.824 201.95 17.8907 201.95 19.064V28.248C201.95 29.4853 201.651 30.616 201.054 31.64C200.456 32.6427 199.656 33.4427 198.654 34.04C197.651 34.6373 196.52 34.9467 195.262 34.968L189.534 35ZM193.278 31.064H195.262C196.051 31.064 196.712 30.7867 197.246 30.232C197.8 29.6773 198.078 29.016 198.078 28.248V19.032C198.078 18.3493 197.822 17.7627 197.31 17.272C196.819 16.76 196.232 16.5147 195.55 16.536L193.31 16.568L193.278 31.064ZM209.908 35.32C208.756 35.32 207.7 35.032 206.74 34.456C205.801 33.8587 205.044 33.08 204.468 32.12C203.913 31.1387 203.636 30.0613 203.636 28.888V27.416C203.636 27.3093 203.689 27.256 203.796 27.256H207.38C207.465 27.256 207.508 27.3093 207.508 27.416V28.888C207.508 29.592 207.742 30.2 208.212 30.712C208.681 31.2027 209.246 31.448 209.908 31.448C210.569 31.448 211.134 31.192 211.604 30.68C212.073 30.168 212.308 29.5707 212.308 28.888C212.308 28.0987 211.796 27.416 210.772 26.84C210.43 26.648 209.897 26.3493 209.172 25.944C208.446 25.5387 207.764 25.1547 207.124 24.792C205.95 24.1093 205.076 23.256 204.5 22.232C203.945 21.1867 203.668 20.0133 203.668 18.712C203.668 17.5173 203.956 16.4507 204.532 15.512C205.108 14.552 205.865 13.7947 206.804 13.24C207.764 12.6853 208.798 12.408 209.908 12.408C211.038 12.408 212.073 12.696 213.012 13.272C213.972 13.8267 214.729 14.584 215.284 15.544C215.86 16.4827 216.148 17.5387 216.148 18.712V21.336C216.148 21.4213 216.105 21.464 216.02 21.464H212.436C212.35 21.464 212.308 21.4213 212.308 21.336L212.276 18.712C212.276 17.9653 212.041 17.3573 211.572 16.888C211.102 16.4187 210.548 16.184 209.908 16.184C209.246 16.184 208.681 16.44 208.212 16.952C207.742 17.4427 207.508 18.0293 207.508 18.712C207.508 19.416 207.657 20.0027 207.956 20.472C208.254 20.9413 208.798 21.3893 209.588 21.816C209.694 21.88 209.897 21.9973 210.196 22.168C210.516 22.3173 210.857 22.4987 211.22 22.712C211.582 22.904 211.902 23.0747 212.18 23.224C212.478 23.3733 212.66 23.4693 212.724 23.512C213.79 24.1093 214.633 24.8453 215.252 25.72C215.87 26.5733 216.18 27.6293 216.18 28.888C216.18 30.104 215.892 31.2027 215.316 32.184C214.761 33.144 214.004 33.912 213.044 34.488C212.105 35.0427 211.06 35.32 209.908 35.32Z" fill="#4B5D8C"/>
</svg>
